<?xml version="1.0" encoding="UTF-8"?>
<svg width="1200pt" height="1200pt" version="1.1" viewBox="0 0 1200 1200" xmlns="http://www.w3.org/2000/svg">
 <path d="m552.3 267.49c-11.062 1.1602-20.371 11.547-20.309 22.672v22.672h-52.898c-33.102 0-60.457 27.355-60.457 60.457v498.77c0 33.102 27.355 60.457 60.457 60.457h241.83c33.102 0 60.457-27.355 60.457-60.457v-498.77c0-33.102-27.355-60.457-60.457-60.457h-52.898v-22.672c0-11.871-10.801-22.668-22.672-22.672h-93.047zm-73.211 90.688h241.83c8.7656 0 15.113 6.3477 15.113 15.113v498.77c0 8.7656-6.3477 15.113-15.113 15.113h-241.83c-8.7656 0-15.113-6.3516-15.113-15.113v-498.77c0-8.7656 6.3477-15.113 15.113-15.113zm99.66 90.688c-9.0391 0.90234-17.184 7.7734-19.602 16.531l-45.344 166.26c-3.7891 13.469 7.9727 28.895 21.965 28.812h36.605l-35.426 106.04c-3.5859 10.535 1.957 23.348 12.09 27.949 10.133 4.6016 23.43 0.33984 29-9.293l98.242-166.26c3.9531-6.8477 3.957-15.805 0.007812-22.656-3.9492-6.8516-11.699-11.34-19.609-11.352h-29.52l56.914-102.5c3.7422-6.8594 3.5898-15.68-0.38672-22.406-3.9766-6.7227-11.637-11.105-19.449-11.129h-85.492z"/>
</svg>
