<?xml version="1.0" encoding="UTF-8"?>
<svg width="1200pt" height="1200pt" version="1.1" viewBox="0 0 1200 1200" xmlns="http://www.w3.org/2000/svg">
 <path d="m317.53 133.31c-1.5 0.046875-3.0469 0.1875-4.5 0.51562-3 0.60938-5.8125 1.8281-8.2969 3.5625 0 0-42.469 30-84.75 77.391-42.328 47.391-86.625 113.34-86.625 189.32 0 101.86 82.688 185.02 184.26 185.02 101.57 0 184.26-83.156 184.26-185.02-0.046874-75.984-44.438-141.89-86.719-189.32-42.328-47.391-84.797-77.391-84.797-77.391-3.75-2.625-8.25-4.0781-12.844-4.0781zm-72.281 224.16c2.9062-0.42188 5.8125-0.23438 8.625 0.46875 11.859 3.0469 19.031 15.188 15.984 27.047-2.0625 8.0625-3 16.219-3 24.469 2.1094 27.422 34.219 51.938 60.328 45.609 5.7188-1.3594 11.766-0.42188 16.781 2.6719 5.0625 3.0469 8.625 8.0156 10.031 13.734 2.8594 11.953-4.4531 23.953-16.359 26.859-55.688 13.406-111.47-29.344-115.31-86.109-0.046875-0.375-0.046875-0.79688 0-1.1719-0.23438-12.891 1.4531-25.312 4.5-37.125 2.25-8.7188 9.5156-15.188 18.375-16.453zm536.72 1.4531v-0.046875c-1.9688-0.14062-3.9844 0-5.9531 0.42188-3 0.60938-5.7656 1.8281-8.25 3.5625 0 0-67.922 47.438-135.71 122.68-67.828 75.188-137.76 179.21-137.76 296.39 0 157.08 128.44 284.76 286.18 284.76 157.74 0 286.22-127.69 286.22-284.76 0-117.14-69.891-221.21-137.72-296.39-67.828-75.234-135.74-122.68-135.74-122.68-3.3281-2.3438-7.1719-3.7031-11.25-3.9844zm-157.97 369.84c5.8125 0.9375 11.016 4.1719 14.484 8.9531s4.875 10.734 3.9375 16.547c-8.7656 54.703 17.812 115.31 65.766 142.36h-0.046875c0.1875 0.09375 0.375 0.23437 0.5625 0.32812 18.047 10.875 38.812 17.25 60.047 19.031 5.9062 0.46875 11.344 3.2812 15.141 7.7812s5.6719 10.359 5.2031 16.219c-1.0312 12.234-11.766 21.328-23.953 20.297-27.609-2.25-54.844-10.594-79.078-25.172-65.719-37.219-99.234-114.89-87.516-187.87 0.9375-5.8125 4.125-11.062 8.9062-14.484 4.7812-3.4688 10.734-4.9219 16.547-3.9844z"/>
</svg>
