<?xml version="1.0" encoding="UTF-8"?>
<svg width="1200pt" height="1200pt" version="1.1" viewBox="0 0 1200 1200" xmlns="http://www.w3.org/2000/svg">
 <g>
  <path d="m685.55 797.58 113.06 59.625c20.391-18.891 165.47-153.84 181.82-168.89l-12.938-25.688v-0.046875c-11.25-22.406-34.172-36.516-59.25-36.516h-114.52c-6.9375 12.562-80.812 131.58-108.19 171.52z"/>
  <path d="m1117.9 960.47-119.81-237.32c-16.922 15.797-144.28 133.82-164.39 152.58l281.95 148.5c11.625-19.453 12.516-43.5 2.25-63.75z"/>
  <path d="m471.66 663.14c32.344 52.688 70.641 109.69 103.31 155.58v0.046875c5.7188 8.1562 15.094 13.031 25.125 12.938 27.891-1.4062 35.438-32.062 52.125-51.562 67.969-99.844 191.29-287.95 193.26-391.45 0-87.656-46.781-168.66-122.72-212.48-75.941-43.824-169.45-43.828-245.39 0-75.938 43.828-122.68 124.82-122.68 212.48-1.6875 64.406 64.219 189.32 116.95 274.45zm128.44-427.4c71.766 0.14062 129.89 58.312 129.89 130.13-6.1875 172.26-253.87 172.03-260.02 0 0.046875-71.859 58.266-130.08 130.13-130.13z"/>
  <path d="m150.89 824.58-68.578 135.89c-10.125 20.625-8.9062 45 3.1406 64.5 12.047 19.547 33.328 31.5 56.25 31.688h449.34c-46.359-24.516-418.5-220.78-440.16-232.08z"/>
  <path d="m324.32 873.71 138.71-153.32c-19.266-30.609-39.094-62.438-56.812-94.312h-114.33c-25.078 0-48 14.109-59.25 36.516l-64.875 128.63c21.562 11.203 132.66 69.938 156.56 82.5z"/>
  <path d="m663.98 828.71c-10.547 22.219-31.969 37.266-56.438 39.656-24.469 2.4375-48.422-8.1562-63.141-27.844-18.188-25.312-38.812-55.312-60.188-87.562l-125.81 138.71 313.26 164.95 386.76 0.046874c9.375 0 18.609-1.9688 27.188-5.8125z"/>
  <path d="m600.1 458.44c122.11-3.9375 122.11-181.31 0-185.21-122.39 3.9844-122.34 181.22 0 185.21z"/>
 </g>
</svg>
