<?xml version="1.0" encoding="UTF-8"?>
<svg width="1200pt" height="1200pt" version="1.1" viewBox="0 0 1200 1200" xmlns="http://www.w3.org/2000/svg">
 <g>
  <path d="m611.32 955.22v-178.19c-3.625 0.22656-7.4727 0.45312-11.32 0.45312-3.8516 0-7.6992-0.22656-11.32-0.45312v178.19c3.8477-0.22656 7.4727-0.45312 11.32-0.45312s7.4727 0.22656 11.32 0.45312"/>
  <path d="m599.91 222.73c45.781 0 83.047-37.27 83.047-83.051s-37.27-83.051-83.047-83.051c-45.805 0-83.074 37.27-83.074 83.051 0.003906 45.781 37.27 83.051 83.074 83.051"/>
  <path d="m588.68 423.14c3.6211-0.22656 7.4727-0.45312 11.32-0.45312s7.6992 0.22656 11.32 0.45312v-178.19c-3.8516 0.22656-7.4727 0.45312-11.32 0.45312-3.8516 0-7.4727-0.22656-11.32-0.45312z"/>
  <path d="m340.53 843.59c2.9414 2.2656 5.8828 4.7539 8.6016 7.4727s5.1836 5.4336 7.4727 8.1523l126.09-126.11c-5.6602-4.9805-11.07-10.414-15.824-16.074z"/>
  <path d="m925.41 357.53c21.258 0 42.543-8.082 58.73-24.293 32.375-32.379 32.375-85.062 0-117.44-32.379-32.398-85.09-32.379-117.46 0-32.332 32.379-32.332 85.062 0 117.44 16.191 16.207 37.473 24.293 58.734 24.293"/>
  <path d="m859.01 357.03c-2.9453-2.4922-5.6602-4.9805-8.3789-7.6992-2.6914-2.7188-5.207-5.4336-7.6992-8.3789l-125.89 125.89c5.6602 5.207 11.117 10.414 16.074 16.074z"/>
  <path d="m244.75 588.65c0.22266 3.8477 0.47656 7.4727 0.47656 11.32s-0.25 7.4727-0.47656 11.32h178.19c-0.22656-3.6211-0.42969-7.4727-0.42969-11.32s0.20312-7.6992 0.42969-11.32z"/>
  <path d="m776.82 588.65c0.22266 3.6211 0.47656 7.4727 0.47656 11.32s-0.25 7.6992-0.47656 11.32h178.19c-0.22656-3.8477-0.42969-7.4727-0.42969-11.32s0.20312-7.4727 0.42969-11.32z"/>
  <path d="m482.7 466.84-125.89-125.89c-2.4922 2.9453-4.957 5.6602-7.6758 8.3789-2.7383 2.7188-5.457 5.207-8.3984 7.4727l125.89 126.11c5-5.6602 10.414-10.867 16.074-16.078"/>
  <path d="m222.57 599.97c0-45.734-37.156-83.094-83.094-83.094-45.738 0-82.867 37.359-82.867 83.094s37.133 83.094 82.867 83.094c45.938 0.003906 83.094-37.355 83.094-83.094"/>
  <path d="m215.78 866.92c-15.852 15.621-24.453 36.453-24.453 58.641s8.6055 43.02 24.453 58.641c16.074 16.301 37.336 24.453 58.641 24.453 21.258 0 42.566-8.1523 58.641-24.453 32.355-32.379 32.355-84.906 0-117.29-31.246-31.469-86.039-31.469-117.28 0.003907"/>
  <path d="m866.72 866.92c-16.098 16.074-24.227 37.359-24.227 58.641s8.1289 42.566 24.227 58.641c16.074 16.301 37.336 24.453 58.641 24.453 21.258 0 42.566-8.1523 58.844-24.453 15.645-15.621 24.246-36.453 24.246-58.641s-8.6055-43.02-24.246-58.641c-32.355-32.379-85.109-32.379-117.48 0"/>
  <path d="m274.42 357.48c21.258 0 42.562-8.1523 58.641-24.227 32.375-32.379 32.375-85.133 0-117.51-32.379-32.379-84.906-32.379-117.29 0-15.848 15.621-24.453 36.68-24.453 58.867s8.6055 43.02 24.453 58.641c16.078 16.074 37.359 24.227 58.645 24.227"/>
  <path d="m600 977.41c-45.965 0-83.094 37.133-83.094 82.867 0 45.961 37.133 83.094 83.094 83.094 45.734 0 82.867-37.133 82.867-83.094 0-45.734-37.133-82.867-82.867-82.867"/>
  <path d="m1060.3 516.88c-45.965 0-83.094 37.359-83.094 83.094s37.133 83.094 83.094 83.094c45.734 0 83.094-37.359 83.094-83.094-0.003907-45.734-37.359-83.094-83.094-83.094"/>
  <path d="m850.62 850.84c2.7188-2.7188 5.4336-5.207 8.3789-7.6992l-126.09-126.11c-4.7539 5.6602-10.188 11.094-15.848 16.074l126.11 126.11c2.2656-2.9414 4.7578-5.6602 7.4492-8.375"/>
  <path d="m599.91 445.24c-85.359 0-154.8 69.441-154.8 154.78 0 85.359 69.441 154.78 154.8 154.78 85.355 0 154.78-69.418 154.78-154.78 0-85.336-69.418-154.78-154.78-154.78"/>
 </g>
</svg>
