<?xml version="1.0" encoding="UTF-8"?>
<svg width="1200pt" height="1200pt" version="1.1" viewBox="0 0 1200 1200" xmlns="http://www.w3.org/2000/svg">
 <g fill-rule="evenodd">
  <path d="m175 487.5c62.102 0 112.5 50.398 112.5 112.5s-50.398 112.5-112.5 112.5-112.5-50.398-112.5-112.5 50.398-112.5 112.5-112.5zm0 75c-20.699 0-37.5 16.801-37.5 37.5s16.801 37.5 37.5 37.5 37.5-16.801 37.5-37.5-16.801-37.5-37.5-37.5z"/>
  <path d="m1025 487.5c62.102 0 112.5 50.398 112.5 112.5s-50.398 112.5-112.5 112.5-112.5-50.398-112.5-112.5 50.398-112.5 112.5-112.5zm0 75c-20.699 0-37.5 16.801-37.5 37.5s16.801 37.5 37.5 37.5 37.5-16.801 37.5-37.5-16.801-37.5-37.5-37.5z"/>
  <path d="m950 562.5c20.699 0 37.5 16.801 37.5 37.5s-16.801 37.5-37.5 37.5h-16.898l-20.898 167.15c-2.25 17.898-16.898 31.699-34.949 32.801-18 1.0508-34.25-10.852-38.648-28.352l-63.602-254.5-63.602 254.5c-4.1992 16.699-19.199 28.398-36.398 28.398-17.199 0-32.199-11.699-36.398-28.398l-63.602-254.5-63.602 254.5c-4.1992 16.699-19.199 28.398-36.398 28.398-17.199 0-32.199-11.699-36.398-28.398l-63.602-254.5-13.602 54.5c-4.1992 16.699-19.199 28.398-36.398 28.398h-75c-20.699 0-37.5-16.801-37.5-37.5 0-20.699 16.801-37.5 37.5-37.5h45.699l42.898-171.6c4.1992-16.699 19.199-28.398 36.398-28.398s32.199 11.699 36.398 28.398l63.602 254.5 63.602-254.5c4.1992-16.699 19.199-28.398 36.398-28.398s32.199 11.699 36.398 28.398l63.602 254.5 63.602-254.5c4.1992-16.699 19.199-28.398 36.398-28.398s32.199 11.699 36.398 28.398l51.301 205.25 0.10156-0.80078c2.3516-18.75 18.301-32.852 37.199-32.852h50z"/>
 </g>
</svg>
