<?xml version="1.0" encoding="UTF-8"?>
<svg width="1200pt" height="1200pt" version="1.1" viewBox="0 0 1200 1200" xmlns="http://www.w3.org/2000/svg">
 <path d="m937.5 150c-60 0-112.5 52.5-112.5 112.5s52.5 112.5 112.5 112.5 112.5-52.5 112.5-112.5-52.5-112.5-112.5-112.5zm-600 75c-3.75 0-11.25 0-15 3.75-93.75 7.5-172.5 86.25-172.5 183.75s78.75 176.25 172.5 183.75c3.75 3.75 11.25 3.75 15 3.75h525c63.75 0 112.5 48.75 112.5 112.5s-48.75 112.5-112.5 112.5h-285l86.25-86.25c15-15 15-37.5 0-52.5s-37.5-15-52.5 0l-150 150c-15 15-15 37.5 0 52.5l150 150c15 15 37.5 15 52.5 0s15-37.5 0-52.5l-86.25-86.25h285c3.75 0 11.25 0 15-3.75 97.5-7.5 172.5-86.25 172.5-183.75s-78.75-176.25-172.5-183.75c-3.75-3.75-11.25-3.75-15-3.75h-525c-63.75 0-112.5-48.75-112.5-112.5s48.75-112.5 112.5-112.5h375c22.5 0 37.5-15 37.5-37.5s-15-37.5-37.5-37.5zm600 0c22.5 0 37.5 15 37.5 37.5s-15 37.5-37.5 37.5-37.5-15-37.5-37.5 15-37.5 37.5-37.5zm-675 525c-60 0-112.5 52.5-112.5 112.5s52.5 112.5 112.5 112.5 112.5-52.5 112.5-112.5-52.5-112.5-112.5-112.5zm0 75c22.5 0 37.5 15 37.5 37.5s-15 37.5-37.5 37.5-37.5-15-37.5-37.5 15-37.5 37.5-37.5z"/>
</svg>
