<?xml version="1.0" encoding="UTF-8"?>
<svg width="1200pt" height="1200pt" version="1.1" viewBox="0 0 1200 1200" xmlns="http://www.w3.org/2000/svg">
 <path d="m247.22 235.03h-140.11c-7.6875 0-14.062 6.375-14.062 14.062v844.69c0 7.6875 6.375 14.062 14.062 14.062h140.11c7.6875 0 14.062-6.375 14.062-14.062v-844.69c0-7.6875-6.2812-14.062-14.062-14.062zm143.63 250.45h-13.781c-7.6875 0-14.062 6.375-14.062 14.062v594.19c0 7.6875 6.375 14.062 14.062 14.062h140.11c7.7812 0 14.062-6.375 14.062-14.062l0.046875-375.14c-70.922-59.812-120.71-141.61-140.44-233.11zm410.44 608.29v-276c-58.312-0.1875-115.5-12.375-168.28-35.625v311.63c0 7.6875 6.375 14.062 14.062 14.062h140.11c7.8281 0 14.109-6.375 14.109-14.062zm255.94-199.03h-140.11c-7.6875 0-14.062 6.2812-14.062 14.062v184.97c0 7.6875 6.375 14.062 14.062 14.062h140.11c7.6875 0 14.062-6.375 14.062-14.062v-184.97c0-7.6875-6.2812-14.062-14.062-14.062zm-33.656-309.56c-28.359 0-42.656 34.5-22.594 54.562s54.562 5.7188 54.562-22.594c-0.046874-17.625-14.391-31.969-31.969-31.969zm-198.19 100.78c-20.062-20.062-54.562-5.8125-54.562 22.594 0 28.359 34.5 42.656 54.562 22.594 12.375-12.469 12.375-32.672 0-45.188zm-211.5-68.812c0-28.359-34.406-42.656-54.469-22.594-20.156 20.062-5.8125 54.562 22.594 54.562 17.625 0 31.875-14.344 31.875-31.969zm179.53 41.625v-115.31c-42.281-2.625-81.281-23.438-107.16-56.906h-174.66c9.8438 31.688 24.656 61.266 43.641 87.656 33.469-20.859 77.438 3.0938 77.438 43.031 0 9.2812-2.625 18.609-7.6406 26.766 37.266 26.812 80.953 45.469 128.29 53.156 4.5938-19.547 20.344-34.688 40.078-38.391zm194.26-77.484c16.875-16.781 42.891-19.5 62.625-7.1719 18.938-26.344 33.844-55.969 43.641-87.656h-174.66c-25.922 33.469-64.875 54.281-107.16 56.906v115.31c19.734 3.75 35.484 18.891 39.984 38.344 47.344-7.6875 91.031-26.344 128.34-53.156-12.234-19.688-9.5625-45.703 7.2188-62.578zm36.844-393.42-50.531 50.531c36.375 39.375 59.25 91.359 61.5 148.6h71.484c-2.2969-76.969-33.188-146.81-82.453-199.13zm-392.95 50.531-50.531-50.531c-49.219 52.359-80.156 122.16-82.5 199.18h71.484c2.25-57.281 25.125-109.27 61.547-148.64zm161.86-74.812v-71.484c-76.969 2.3438-146.81 33.188-199.18 82.5l50.531 50.484c39.422-36.281 91.359-59.25 148.64-61.5zm18.75-71.438v71.484c57.281 2.25 109.22 25.172 148.55 61.5l50.531-50.484c-52.359-49.312-122.11-80.203-199.08-82.5zm25.031 269.76c-30.562-30.562-83.109-8.7656-83.109 34.5 0 43.219 52.547 64.969 83.109 34.406 18.984-18.984 18.984-49.828 0-68.906zm56.719-83.766c-6.8438 0.14062-10.922 2.625-15.656 7.1719l-47.344 49.781c13.594 6.2344 24.844 16.969 31.781 30.234l47.297-49.688c15.094-17.156 1.4531-37.969-16.078-37.5z"/>
</svg>
