<?xml version="1.0" encoding="UTF-8"?>
<svg width="1200pt" height="1200pt" version="1.1" viewBox="0 0 1200 1200" xmlns="http://www.w3.org/2000/svg">
 <g>
  <path d="m489.6 1171.2c160.8 31.199 300-91.199 300-247.2 0-81.602-40.801-156-103.2-201.6l-0.003906-549.6c0-81.602-64.801-148.8-148.8-148.8-81.602 0-148.8 67.199-148.8 148.8v549.6c-74.398 55.199-117.6 148.8-96 254.4 19.203 96 98.402 175.2 196.8 194.4zm-69.602-403.2 21.602-16.801v-576c0-52.801 43.199-93.602 93.602-93.602 52.801 0 96 43.199 96 93.602v576l21.602 16.801c50.398 36 79.199 96 79.199 158.4 0 52.801-21.602 103.2-57.602 139.2-38.398 36-86.398 57.602-139.2 57.602-98.398 0-175.2-69.602-192-156-12.004-79.199 16.797-156 76.797-199.2z"/>
  <path d="m537.6 1065.6c38.398 0 74.398-14.398 100.8-40.801 26.398-26.398 40.801-62.398 40.801-100.8 0-96-81.602-127.2-103.2-146.4l-0.003906-405.6h-79.199v405.6c-16.801 19.199-122.4 57.602-98.398 175.2 11.996 62.398 67.199 112.8 139.2 112.8z"/>
  <path d="m885.6 187.2h-136.8v55.199h136.8c14.398 0 26.398-12 26.398-26.398 2.3984-16.801-9.6016-28.801-26.398-28.801z"/>
  <path d="m859.2 360c0-14.398-12-26.398-26.398-26.398h-81.602v55.199h81.602c14.398-2.4023 26.398-14.402 26.398-28.801z"/>
  <path d="m914.4 504c0-14.398-12-26.398-26.398-26.398h-136.8v55.199h136.8c14.398 0 26.398-14.402 26.398-28.801z"/>
 </g>
</svg>
