<?xml version="1.0" encoding="UTF-8"?>
<svg width="1200pt" height="1200pt" version="1.1" viewBox="0 0 1200 1200" xmlns="http://www.w3.org/2000/svg">
 <path d="m931.2 55.199c-9.6016-16.801-27.602-25.199-48-25.199h-261.6c-31.199 0-63.602 20.398-76.801 48l-277.2 576c-9.6016 19.199-8.3984 38.398 1.1992 54 9.6016 15.602 27.602 25.199 48 25.199l205.2 2.3984-147.6 372c-3.6016 9.6016-10.801 28.801 2.3984 48 6 8.3984 16.801 14.398 26.398 14.398h2.3984c20.398 0 32.398-15.602 38.398-22.801l480-602.4c20.398-25.199 12-49.199 8.3984-55.199s-15.602-27.602-49.199-27.602h-152.39l199.2-351.6c10.801-18 10.801-38.398 1.1992-55.199z"/>
</svg>
