<?xml version="1.0" encoding="UTF-8"?>
<svg width="1200pt" height="1200pt" version="1.1" viewBox="0 0 1200 1200" xmlns="http://www.w3.org/2000/svg">
 <path d="m787.5 300h-600c-62.109 0-112.5 50.391-112.5 112.5v450c0 62.109 50.391 112.5 112.5 112.5h145.13c13.219 0 25.5 6.9844 32.25 18.375l58.125 97.125c13.547 22.594 37.969 36.422 64.312 36.422s50.766-13.828 64.312-36.422l58.5-97.5c6.75-11.391 19.031-18.375 32.25-18.375h145.13c62.109 0 112.5-50.391 112.5-112.5v-449.63c0-62.109-50.391-112.5-112.5-112.5zm-562.5 412.5c0-20.719 16.781-37.5 37.5-37.5h450c20.719 0 37.5 16.781 37.5 37.5s-16.781 37.5-37.5 37.5h-450c-20.719 0-37.5-16.781-37.5-37.5zm487.5-112.5h-450c-20.719 0-37.5-16.781-37.5-37.5s16.781-37.5 37.5-37.5h450c20.719 0 37.5 16.781 37.5 37.5s-16.781 37.5-37.5 37.5zm412.5-412.5v450c0 62.109-50.391 112.5-112.5 112.5h-37.5v-337.5c0-49.734-19.734-97.406-54.938-132.56-35.156-35.203-82.828-54.938-132.56-54.938h-487.5v-37.5c0-62.109 50.391-112.5 112.5-112.5h600c62.109 0 112.5 50.391 112.5 112.5z"/>
</svg>
