<?xml version="1.0" encoding="UTF-8"?>
<svg width="1200pt" height="1200pt" version="1.1" viewBox="0 0 1200 1200" xmlns="http://www.w3.org/2000/svg">
 <g>
  <path d="m1042.8 758.4-96-69.602c-8.3984-6-19.199-7.1992-28.801-2.3984-9.6016 4.8008-15.602 14.398-15.602 25.199v42l-229.2 0.003906c-15.602 0-27.602 12-27.602 27.602s12 27.602 27.602 27.602h229.2v42c0 10.801 6 20.398 15.602 25.199 3.6016 2.3984 8.3984 3.6016 12 3.6016 6 0 12-1.1992 16.801-4.8008l96-69.602c7.1992-4.8008 12-13.199 12-22.801 0-9.6016-4.8008-18.004-12-24.004z"/>
  <path d="m542.4 758.4-96-69.602c-8.3984-6-19.199-7.1992-28.801-2.3984-9.6016 4.8008-15.602 14.398-15.602 25.199v42l-228 0.003906c-15.602 0-27.602 12-27.602 27.602s12 27.602 27.602 27.602h229.2v42c0 10.801 6 20.398 15.602 25.199 3.6016 2.3984 8.3984 3.6016 12 3.6016 6 0 12-1.1992 16.801-4.8008l96-69.602c7.1992-4.8008 12-13.199 12-22.801 0-9.6016-6-18.004-13.203-24.004z"/>
  <path d="m1144.8 544.8c-10.801-2.3984-19.199-8.3984-30-14.398-19.199-12-43.199-26.398-87.602-26.398-44.398 0-68.398 14.398-87.602 26.398-15.602 9.6016-27.602 16.801-54 16.801-26.398 0-38.398-7.1992-54-16.801-19.199-12-43.199-26.398-87.602-26.398-44.398 0-68.398 14.398-87.602 26.398-16.801 9.6016-27.602 16.801-54 16.801-26.398 0-38.398-7.1992-54-16.801-19.199-12-43.199-26.398-87.602-26.398-44.398 0-68.398 14.398-87.602 26.398-15.602 9.6016-27.602 16.801-54 16.801-26.398 0-38.398-7.1992-54-16.801-19.199-12-43.199-26.398-87.602-26.398-44.398 0-68.398 14.398-87.602 26.398-9.6016 6-18 10.801-28.801 13.199-12 3.6016-22.801 13.199-25.199 25.199-4.8008 24 16.801 43.199 39.602 37.199 21.602-4.8008 36-14.398 48-21.602 15.602-9.6016 27.602-16.801 54-16.801 26.398 0 38.398 7.1992 54 16.801 19.199 12 43.199 26.398 87.602 26.398 44.398 0 68.398-14.398 87.602-26.398 15.602-9.6016 27.602-16.801 54-16.801 26.398 0 38.398 7.1992 54 16.801 19.199 12 43.199 26.398 87.602 26.398 44.398 0 68.398-14.398 87.602-26.398 15.602-9.6016 27.602-16.801 54-16.801 26.398 0 38.398 7.1992 54 16.801 19.199 12 43.199 26.398 87.602 26.398 44.398 0 68.398-14.398 87.602-26.398 15.602-9.6016 27.602-16.801 54-16.801 26.398 0 38.398 7.1992 54 16.801 12 7.1992 26.398 15.602 46.801 21.602 20.398 4.8008 40.801-9.6016 40.801-31.199 1.1992-13.199-9.6016-26.402-24-30z"/>
  <path d="m69.602 424.8c21.602-4.8008 36-14.398 48-21.602 15.602-9.6016 27.602-16.801 54-16.801 26.398 0 38.398 7.1992 54 16.801 19.199 12 43.199 26.398 87.602 26.398 44.398 0 68.398-14.398 87.602-26.398 15.602-9.6016 27.602-16.801 54-16.801 26.398 0 38.398 7.1992 54 16.801 19.199 12 43.199 26.398 87.602 26.398 44.398 0 68.398-14.398 87.602-26.398 15.602-9.6016 27.602-16.801 54-16.801 26.398 0 38.398 7.1992 54 16.801 19.199 12 43.199 26.398 87.602 26.398 44.398 0 68.398-14.398 87.602-26.398 15.602-9.6016 27.602-16.801 54-16.801 26.398 0 38.398 7.1992 54 16.801 12 7.1992 26.398 15.602 46.801 21.602 20.398 4.8008 40.801-9.6016 40.801-31.199 0-14.398-10.801-27.602-25.199-31.199-10.801-2.3984-19.199-8.3984-30-14.398-19.199-12-43.199-26.398-87.602-26.398-44.398 0-68.398 14.398-87.602 26.398-15.602 9.6016-27.602 16.801-54 16.801-26.398 0-38.398-7.1992-54-16.801-19.199-12-43.199-26.398-87.602-26.398-44.398 0-68.398 14.398-87.602 26.398-16.801 9.6016-27.602 16.801-54 16.801-26.398 0-38.398-7.1992-54-16.801-19.199-12-43.199-26.398-87.602-26.398-44.398 0-68.398 14.398-87.602 26.398-15.602 9.6016-27.602 16.801-54 16.801-26.398 0-38.398-7.1992-54-16.801-19.199-12-43.199-26.398-87.602-26.398-42.004-0.003907-67.203 14.395-86.402 26.395-9.6016 6-18 10.801-28.801 13.199-12 3.6016-22.801 13.199-25.199 25.199-3.6016 25.203 18 44.402 39.602 38.402z"/>
 </g>
</svg>
