<?xml version="1.0" encoding="UTF-8"?>
<svg width="1200pt" height="1200pt" version="1.1" viewBox="0 0 1200 1200" xmlns="http://www.w3.org/2000/svg">
 <path d="m504.15 650c23.801 141.89 147.2 250 295.85 250 165.68 0 300-134.32 300-300s-134.32-300-300-300c-148.65 0-272.05 108.11-295.85 250h-112.68c-20.594-58.258-76.152-100-141.46-100-82.844 0-150 67.156-150 150s67.156 150 150 150c65.312 0 120.87-41.738 141.46-100zm295.85-250c-110.45 0-200 89.543-200 200 0 110.45 89.547 200 200 200s200-89.547 200-200c0-110.46-89.547-200-200-200zm-550 150c-27.613 0-50 22.387-50 50s22.387 50 50 50 50-22.387 50-50-22.387-50-50-50z" fill-rule="evenodd"/>
</svg>
