<?xml version="1.0" encoding="UTF-8"?>
<svg width="1200pt" height="1200pt" version="1.1" viewBox="0 0 1200 1200" xmlns="http://www.w3.org/2000/svg">
 <g>
  <path d="m993.75 450c0-217.5-176.25-393.75-393.75-393.75s-393.75 176.25-393.75 393.75c0 150 84.375 279.38 206.25 346.88v84.375c0 31.875 24.375 56.25 56.25 56.25h37.5v187.5c0 11.25 7.5 18.75 18.75 18.75h150c11.25 0 18.75-7.5 18.75-18.75v-187.5h37.5c31.875 0 56.25-24.375 56.25-56.25v-84.375c121.88-67.5 206.25-196.88 206.25-346.88zm-243.75 431.25c0 11.25-7.5 18.75-18.75 18.75h-262.5c-11.25 0-18.75-7.5-18.75-18.75v-67.5c46.875 18.75 97.5 30 150 30s103.12-11.25 150-30zm-150-75c-196.88 0-356.25-159.38-356.25-356.25s159.38-356.25 356.25-356.25 356.25 159.38 356.25 356.25-159.38 356.25-356.25 356.25z"/>
  <path d="m600 131.25c-176.25 0-318.75 142.5-318.75 318.75s142.5 318.75 318.75 318.75 318.75-142.5 318.75-318.75-142.5-318.75-318.75-318.75zm183.75 275.62-127.5 144.38c11.25 13.125 18.75 30 18.75 48.75 0 41.25-33.75 75-75 75s-75-33.75-75-75 33.75-75 75-75c9.375 0 16.875 1.875 24.375 3.75l129.38-148.12c7.5-7.5 18.75-9.375 26.25-1.875 9.375 7.5 9.375 18.75 3.75 28.125zm41.25 61.875c-11.25 0-18.75-7.5-18.75-18.75 0-114.38-91.875-206.25-206.25-206.25s-206.25 91.875-206.25 206.25c0 11.25-7.5 18.75-18.75 18.75s-18.75-7.5-18.75-18.75c0-135 108.75-243.75 243.75-243.75s243.75 108.75 243.75 243.75c0 11.25-7.5 18.75-18.75 18.75z"/>
 </g>
</svg>
