<?xml version="1.0" encoding="UTF-8"?>
<svg width="1200pt" height="1200pt" version="1.1" viewBox="0 0 1200 1200" xmlns="http://www.w3.org/2000/svg">
 <g>
  <path d="m262.5 579.38-161.02 260.16c-17.344 27.891-26.484 60-26.484 93.047v11.25c0 99.844 84.141 181.17 187.5 181.17s187.5-81.328 187.5-181.17v-11.25c0-32.812-9.1406-65.156-26.484-93.047zm136.88 414.14c-16.172 42.891-49.922 76.641-92.812 92.812l-13.125-35.156c62.578-23.438 94.453-93.281 70.781-155.86-1.875-5.1562-4.2188-10.078-6.7969-15l-55.078-102.66 33.047-17.812 55.312 102.66c21.562 40.312 24.844 88.125 8.6719 131.02z"/>
  <path d="m806.25 504.84v-12.656c0-37.266-10.078-73.828-29.297-105.7l-176.95-293.91-176.95 293.91c-19.219 31.875-29.297 68.438-29.297 105.7v12.656c0 113.2 92.578 205.55 206.25 205.55 113.67-0.23438 206.25-92.344 206.25-205.55zm-127.27-131.72-37.031-44.531 28.828-23.906 37.031 44.531c74.766 89.766 62.812 223.36-27.188 298.12-10.547 8.9062-22.031 16.641-34.219 23.203l-18.047-32.812c84.375-46.172 115.55-151.88 69.609-236.48-5.3906-10.078-11.719-19.453-18.984-28.125z"/>
  <path d="m777.89 837.42c-16.875-1.6406-33.516 4.2188-45.469 16.172l-62.812 62.812c-7.2656 7.2656-19.219 7.2656-26.719 0-22.031-22.031-57.656-22.031-79.688 0-1.4062 1.4062-2.8125 3.0469-4.2188 4.6875l-48.75 60.938 29.297 23.438 48.75-60.938c6.5625-8.2031 18.281-9.375 26.484-3.0469 0.46875 0.46875 1.1719 0.9375 1.6406 1.4062 22.031 22.031 57.656 22.031 79.688 0l61.641-61.641c4.4531-14.766 10.781-28.828 18.984-41.953z"/>
  <path d="m1102.5 846.33 53.203-44.531-23.906-28.828-48.984 41.016 15.703 25.547c1.4062 2.1094 2.5781 4.4531 3.9844 6.7969z"/>
  <path d="m828.98 865.55c7.5 5.625 18.047 4.9219 24.609-1.6406l46.875-46.875c20.391-20.391 52.5-22.031 75-4.2188l43.594 34.922c7.0312 5.625 16.875 5.3906 23.906-0.23438l39.844-33.281-145.31-234.84-159.61 258.05c10.312 0.9375 19.922 4.6875 28.125 10.781z"/>
  <path d="m1066.9 876.09c-20.625 17.109-50.391 17.344-71.25 0.70312l-43.594-34.922c-7.5-6.0938-18.281-5.3906-25.078 1.4062l-46.875 46.875c-19.922 19.688-51.094 22.031-73.594 5.1562l-22.969-17.109c-7.5-5.625-18.047-4.9219-24.609 1.6406l-1.4062 1.4062c-5.1562 16.641-7.7344 33.75-7.7344 51.094v11.25c0 99.844 84.141 181.17 187.5 181.17s187.5-81.328 187.5-181.17v-11.25c0-30.234-7.7344-59.766-22.5-86.25zm-3.9844 141.8c-18.516 31.406-47.109 55.781-81.328 68.438l-13.125-35.156c53.203-19.688 85.547-73.828 77.578-129.84l37.266-5.1562c4.4531 35.156-2.5781 71.016-20.391 101.72z"/>
 </g>
</svg>
