<?xml version="1.0" encoding="UTF-8"?>
<svg width="1200pt" height="1200pt" version="1.1" viewBox="0 0 1200 1200" xmlns="http://www.w3.org/2000/svg">
 <g>
  <path d="m187.43 1087.5c-18.637 0-34.801-13.875-37.125-32.852-0.375-2.8867-3.4492-29.398 0.30078-64.648 2.1758-20.625 20.852-35.512 41.211-33.375 20.625 2.1758 35.551 20.625 33.375 41.211-2.8125 26.852-0.44922 47.477-0.41406 47.664 2.3984 20.512-12.227 39.188-32.738 41.664-1.5742 0.22656-3.1094 0.33594-4.6094 0.33594z"/>
  <path d="m219.71 937.05c-7.3125 0-14.773-2.1758-21.227-6.6367-17.062-11.738-21.336-35.102-9.6016-52.164 24.523-35.586 58.949-59.438 102.3-70.875 19.727-5.25 40.539 6.6758 45.824 26.699 5.2891 20.023-6.6758 40.539-26.699 45.824-25.836 6.8242-45.375 20.211-59.664 40.914-7.3086 10.574-19.008 16.238-30.934 16.238zm413.78-11.812c-13.273-0.039062-26.812-0.63672-40.688-1.9141-20.625-1.9141-35.773-20.176-33.898-40.801 1.9141-20.586 19.836-35.773 40.801-33.898 31.875 2.9258 61.613 1.8008 90.449-3.1133 20.738-3.4141 39.863 10.199 43.273 30.602 3.5234 20.438-10.199 39.824-30.602 43.273-22.535 3.9023-45.863 5.8516-69.336 5.8516zm-135.64-21.902c-3.6758 0-7.3516-0.52344-11.062-1.6875l-11.289-3.6367c-28.988-9.6367-56.137-16.387-80.477-19.988-20.477-3.0742-34.613-22.164-31.574-42.637 3.0742-20.477 22.199-34.387 42.637-31.574 28.648 4.2734 60 12.039 93.227 23.062l9.6016 3.1133c19.762 6.0742 30.863 27.074 24.75 46.875-4.9141 16.125-19.766 26.473-35.812 26.473zm294.04-14.098c-13.914 0-27.336-7.7617-33.75-21.113-9.0391-18.637-1.2734-41.102 17.363-50.102 26.477-12.863 51.977-29.664 75.789-49.988 15.75-13.352 39.375-11.586 52.875 4.1641 13.426 15.75 11.586 39.449-4.1641 52.875-28.688 24.449-59.551 44.773-91.727 60.375-5.3242 2.5898-10.875 3.7891-16.387 3.7891z"/>
  <path d="m944.66 759.75c-7.7617 0-15.602-2.3984-22.352-7.3867-16.613-12.336-20.062-35.852-7.7266-52.461 17.887-24.074 26.812-41.551 26.887-41.699 9.4141-18.488 31.914-25.914 50.363-16.574 18.449 9.2617 25.914 31.727 16.688 50.211-0.48828 0.89844-11.625 23.062-33.711 52.836-7.3516 9.8242-18.676 15.074-30.148 15.074z"/>
  <path d="m1059.3 583.57-20.773 16.613 74.961 524.81h-1027l91.086-637.5h694.24c-17.852-21.977-36.113-47.023-52.988-75h-706.31l-112.5 787.5h1200l-94.199-659.4c-25.277 25.648-43.949 40.949-46.465 42.973z"/>
  <path d="m1012.5 0c-103.57 0-187.5 83.926-187.5 187.5 0 187.5 187.5 337.5 187.5 337.5s187.5-150 187.5-337.5c0-103.57-83.926-187.5-187.5-187.5zm0 112.5c41.398 0 75 33.602 75 75s-33.602 75-75 75-75-33.602-75-75 33.602-75 75-75z"/>
 </g>
</svg>
