<?xml version="1.0" encoding="UTF-8"?>
<svg width="1200pt" height="1200pt" version="1.1" viewBox="0 0 1200 1200" xmlns="http://www.w3.org/2000/svg">
 <path d="m200 1062.5h800c23.199-0.027344 45.438-9.2539 61.844-25.656 16.402-16.406 25.629-38.645 25.656-61.844v-750c-0.027344-23.199-9.2539-45.438-25.656-61.844-16.406-16.402-38.645-25.629-61.844-25.656h-800c-23.199 0.027344-45.438 9.2539-61.844 25.656-16.402 16.406-25.629 38.645-25.656 61.844v750c0.027344 23.199 9.2539 45.438 25.656 61.844 16.406 16.402 38.645 25.629 61.844 25.656zm562.5-562.5c0-13.398 7.1484-25.777 18.75-32.477 11.602-6.6992 25.898-6.6992 37.5 0 11.602 6.6992 18.75 19.078 18.75 32.477v350c0 13.398-7.1484 25.777-18.75 32.477-11.602 6.6992-25.898 6.6992-37.5 0-11.602-6.6992-18.75-19.078-18.75-32.477zm-200-150c0-13.398 7.1484-25.777 18.75-32.477 11.602-6.6992 25.898-6.6992 37.5 0 11.602 6.6992 18.75 19.078 18.75 32.477v500c0 13.398-7.1484 25.777-18.75 32.477-11.602 6.6992-25.898 6.6992-37.5 0-11.602-6.6992-18.75-19.078-18.75-32.477zm-200 250c0-13.398 7.1484-25.777 18.75-32.477 11.602-6.6992 25.898-6.6992 37.5 0 11.602 6.6992 18.75 19.078 18.75 32.477v250c0 13.398-7.1484 25.777-18.75 32.477-11.602 6.6992-25.898 6.6992-37.5 0-11.602-6.6992-18.75-19.078-18.75-32.477z"/>
</svg>
